<svg xmlns="http://www.w3.org/2000/svg" viewBox="0 0 1016 1016"><defs><style>.cls-1{fill:#049157;}.cls-2{fill:none;}</style></defs><g id="Layer_2" data-name="Layer 2"><g id="Layer_1-2" data-name="Layer 1"><path class="cls-1" d="M515.39,446.42h0a63.75,63.75,0,0,1-63.76,63.76H197.73A63.75,63.75,0,0,1,134,446.43V192.54a63.75,63.75,0,0,1,63.75-63.76H833a63.75,63.75,0,0,1,63.76,63.76V318.91A63.75,63.75,0,0,1,833,382.67H579.14A63.75,63.75,0,0,0,515.39,446.42Z"/><path class="cls-1" d="M515.39,574h0a63.75,63.75,0,0,1,63.75-63.76H833A63.75,63.75,0,0,1,896.79,574V827.83A63.75,63.75,0,0,1,833,891.59H197.73A63.75,63.75,0,0,1,134,827.83V701.46a63.75,63.75,0,0,1,63.75-63.76h253.9A63.75,63.75,0,0,0,515.39,574Z"/><rect class="cls-2" width="1016" height="1016"/></g></g></svg>