<svg xmlns="http://www.w3.org/2000/svg" viewBox="0 0 500 500"><defs><style>.cls-1{isolation:isolate;}.cls-2{fill:#22a66a;}.cls-3,.cls-4,.cls-5{fill:#fc0;}.cls-4{mix-blend-mode:screen;}.cls-19,.cls-4,.cls-5,.cls-8,.cls-9{opacity:0.5;}.cls-30,.cls-5{mix-blend-mode:multiply;}.cls-6{fill:#f0f1f3;}.cls-7{fill:#fff;}.cls-22,.cls-8{fill:#f3a100;}.cls-20,.cls-9{fill:#1e2346;}.cls-10{fill:#6cacac;}.cls-11{fill:#5a9997;}.cls-12{fill:#a2c2c0;}.cls-13{fill:#7bc3c3;}.cls-14{fill:#68b0ae;}.cls-15{fill:#b5d9d7;}.cls-16{fill:#86d4d4;}.cls-17{fill:#72c1bf;}.cls-18{fill:#c3eae8;}.cls-21{fill:#d68900;}.cls-23{fill:#f9a91c;}.cls-24{fill:#141930;}.cls-25{fill:#e6976d;}.cls-26{fill:#e59303;}.cls-27,.cls-30{fill:#e37463;}.cls-28{fill:#42528e;}.cls-29{fill:#d68505;}.cls-30{opacity:0.4;}.cls-31{fill:#1a427d;}.cls-32{fill:#a9bff8;}.cls-33{fill:#102f54;}.cls-34{fill:#f0f1f5;}.cls-35{fill:#cbced8;}.cls-36{fill:#26377c;}.cls-37{fill:#f3ce87;}</style></defs><g class="cls-1"><g id="BACKGROUND"><rect class="cls-2" width="500" height="500"/></g><g id="OBJECTS"><rect class="cls-3" x="61.67" y="386.16" width="137.23" height="21.38"/><rect class="cls-4" x="61.67" y="386.16" width="47.03" height="21.38"/><rect class="cls-5" x="153.84" y="386.16" width="45.05" height="21.38"/><rect class="cls-3" x="56.67" y="364.84" width="137.23" height="21.38"/><rect class="cls-4" x="56.67" y="364.84" width="36.42" height="21.38"/><rect class="cls-5" x="136.08" y="364.84" width="57.81" height="21.38"/><rect class="cls-3" x="71.63" y="343.38" width="137.23" height="21.38"/><rect class="cls-4" x="71.63" y="343.38" width="53.65" height="21.38"/><rect class="cls-5" x="169.83" y="343.38" width="39.02" height="21.38"/><rect class="cls-3" x="63.11" y="322.16" width="137.23" height="21.38"/><rect class="cls-4" x="63.11" y="322.16" width="40.89" height="21.38"/><rect class="cls-5" x="144.67" y="322.16" width="55.67" height="21.38"/><rect class="cls-5" x="61.67" y="386.16" width="131.71" height="3.19"/><rect class="cls-5" x="71.63" y="343.54" width="128.71" height="3.31"/><rect class="cls-6" x="208.33" y="85.35" width="207" height="304" rx="18"/><rect class="cls-7" x="190.33" y="143.35" width="243" height="167" transform="translate(538.68 -84.99) rotate(90)"/><rect class="cls-8" x="237.83" y="164.85" width="9" height="54"/><rect class="cls-9" x="251.83" y="154.85" width="9" height="64"/><rect class="cls-8" x="265.83" y="135.85" width="9" height="83"/><rect class="cls-9" x="279.83" y="157.85" width="9" height="61"/><rect class="cls-8" x="293.83" y="180.85" width="9" height="38"/><rect class="cls-8" x="307.83" y="153.35" width="9" height="65.5"/><rect class="cls-9" x="321.83" y="193.85" width="9" height="25"/><rect class="cls-8" x="335.83" y="201.35" width="9" height="17.5"/><rect class="cls-8" x="349.83" y="182.85" width="9" height="36"/><rect class="cls-9" x="363.83" y="172.85" width="9" height="46"/><rect class="cls-8" x="377.83" y="164.85" width="9" height="54"/><rect class="cls-8" x="377.83" y="271.85" width="9" height="54" transform="translate(764.67 597.7) rotate(180)"/><rect class="cls-9" x="363.83" y="261.85" width="9" height="64" transform="translate(736.67 587.7) rotate(180)"/><rect class="cls-8" x="349.83" y="242.85" width="9" height="83" transform="translate(708.67 568.7) rotate(180)"/><rect class="cls-9" x="335.83" y="264.85" width="9" height="61" transform="translate(680.67 590.7) rotate(180)"/><rect class="cls-8" x="321.83" y="287.85" width="9" height="38" transform="translate(652.67 613.7) rotate(180)"/><rect class="cls-8" x="307.83" y="260.35" width="9" height="65.5" transform="translate(624.67 586.2) rotate(180)"/><rect class="cls-9" x="293.83" y="300.85" width="9" height="25" transform="translate(596.67 626.7) rotate(180)"/><rect class="cls-8" x="279.83" y="308.35" width="9" height="17.5" transform="translate(568.67 634.2) rotate(180)"/><rect class="cls-8" x="265.83" y="289.85" width="9" height="36" transform="translate(540.67 615.7) rotate(180)"/><rect class="cls-9" x="251.83" y="279.85" width="9" height="46" transform="translate(512.67 605.7) rotate(180)"/><rect class="cls-8" x="237.83" y="271.85" width="9" height="54" transform="translate(484.67 597.7) rotate(180)"/><circle class="cls-7" cx="311.83" cy="366.35" r="10.5"/><rect class="cls-10" x="246.27" y="207.71" width="201.35" height="103.92"/><path class="cls-11" d="M419.9,300.26H274v-1.62c0-9.85-7.2-17.86-16.05-17.86h-1.46V238.56h1.46c8.85,0,16.05-8,16.05-17.86v-1.63H419.9v1.63c0,9.85,7.2,17.86,16.05,17.86h1.46v42.22H436c-8.85,0-16.05,8-16.05,17.86Zm-143-3.24H417c.72-10.35,8.16-18.64,17.46-19.43V241.75c-9.3-.8-16.74-9.08-17.46-19.43H276.85c-.71,10.35-8.15,18.63-17.45,19.43v35.84C268.7,278.38,276.14,286.67,276.85,297Z"/><path class="cls-11" d="M366.49,241.76h-5.15a16.44,16.44,0,0,0-2.3-4h5.31l4.48-6.58-2.34-1.78H330.34l-4.48,6.57,2.34,1.79h17.51a10.14,10.14,0,0,1,5,1.28,10.37,10.37,0,0,1,1.95,2.76H329.54l-4.48,6.58,2.34,1.78h25.45a10.26,10.26,0,0,1-9.48,6.34h-17.1V264L340,288.2l2.34,1.78h9.44l-14-25.16h8a16.84,16.84,0,0,0,16.54-14.7h2l4.48-6.57Z"/><path class="cls-12" d="M356.7,235.93H362l4.48-6.57H330.34l-4.48,6.57h17.51a10.26,10.26,0,0,1,9.25,5.82H329.54l-4.48,6.58h28.35a10.27,10.27,0,0,1-10,8.12h-17.1V264L340,288.2h9.44l-14-25.17h8a16.82,16.82,0,0,0,16.54-14.69H362l4.48-6.58H359.6A16.79,16.79,0,0,0,356.7,235.93Z"/><rect class="cls-13" x="242.02" y="202.36" width="201.35" height="103.92"/><path class="cls-14" d="M415.64,294.91H269.74v-1.62c0-9.85-7.2-17.86-16.05-17.86h-1.46V233.21h1.46c8.85,0,16.05-8,16.05-17.86v-1.63h145.9v1.63c0,9.85,7.2,17.86,16.05,17.86h1.46v42.22h-1.46c-8.85,0-16.05,8-16.05,17.86Zm-143-3.24H412.78c.71-10.35,8.16-18.64,17.45-19.43V236.39c-9.29-.79-16.74-9.07-17.45-19.42H272.6c-.71,10.35-8.16,18.63-17.45,19.42v35.85C264.44,273,271.89,281.32,272.6,291.67Z"/><path class="cls-14" d="M362.24,236.41h-5.15a16.77,16.77,0,0,0-2.3-4h5.3l4.49-6.58L362.24,224H326.09l-4.48,6.57,2.34,1.79h17.51a6.19,6.19,0,0,1,6.9,4H325.29L320.8,243l2.34,1.78H348.6a10.27,10.27,0,0,1-9.48,6.34H322v7.53l13.76,24.21,2.34,1.78h9.45l-14-25.16h8a16.84,16.84,0,0,0,16.54-14.7h1.94l4.49-6.57Z"/><path class="cls-15" d="M352.45,230.58h5.3l4.49-6.57H326.09l-4.48,6.57h17.51a10.24,10.24,0,0,1,9.24,5.82H325.29L320.8,243h28.35a10.25,10.25,0,0,1-10,8.12H322v7.53l13.76,24.21h9.45l-14-25.17h8A16.83,16.83,0,0,0,355.81,243h1.94l4.49-6.58h-6.89A17,17,0,0,0,352.45,230.58Z"/><rect class="cls-16" x="234.98" y="196.58" width="201.35" height="103.92"/><path class="cls-17" d="M408.61,289.14H262.7v-1.62c0-9.85-7.2-17.87-16-17.87h-1.46V227.44h1.46c8.85,0,16-8,16-17.87V208H408.61v1.62c0,9.85,7.2,17.87,16.05,17.87h1.45v42.21h-1.45c-8.85,0-16.05,8-16.05,17.87Zm-143-3.25H405.74c.71-10.35,8.16-18.63,17.46-19.42V230.62c-9.3-.79-16.75-9.07-17.46-19.42H265.56c-.71,10.35-8.15,18.63-17.45,19.42v35.85C257.41,267.26,264.85,275.54,265.56,285.89Z"/><path class="cls-17" d="M355.2,230.64h-5.15a16.69,16.69,0,0,0-2.3-4h5.31l4.48-6.57-2.34-1.79H319.05l-4.48,6.58,2.34,1.78h17.51a10.25,10.25,0,0,1,5,1.28,10.58,10.58,0,0,1,1.95,2.77H318.25l-4.48,6.58,2.34,1.78h25.45a10.26,10.26,0,0,1-9.48,6.34H315v7.53l13.77,24.2,2.34,1.79h9.44l-14-25.17h8A16.82,16.82,0,0,0,351.11,239h1.95l4.48-6.58Z"/><path class="cls-18" d="M345.41,224.81h5.31l4.48-6.58H319.05l-4.48,6.58h17.51a10.27,10.27,0,0,1,9.25,5.83H318.25l-4.48,6.58h28.35a10.28,10.28,0,0,1-10,8.12H315v7.53l13.77,24.2h9.44l-14-25.16h8a16.83,16.83,0,0,0,16.54-14.69h2l4.48-6.58h-6.89A16.62,16.62,0,0,0,345.41,224.81Z"/><g class="cls-19"><polygon class="cls-20" points="103.38 213.5 98.17 208.83 174.06 124.12 221.96 172.47 313.27 90.2 348.3 140.25 378.74 113.61 383.35 118.88 347.04 150.66 312.08 100.7 221.69 182.13 174.32 134.33 103.38 213.5"/><polygon class="cls-20" points="387.93 131.09 398.05 101.35 367.24 107.45 387.93 131.09"/></g><circle class="cls-3" cx="382.33" cy="354.07" r="61.26"/><circle class="cls-21" cx="382.33" cy="354.07" r="47.01"/><circle class="cls-22" cx="382.33" cy="354.07" r="45.23"/><path class="cls-21" d="M404.4,335.94h-5.48a18,18,0,0,0-2.45-4.31h5.65l4.78-7-2.5-1.9H365.9l-4.78,7,2.49,1.9h18.66a6.56,6.56,0,0,1,7.35,4.31H365l-4.77,7,2.49,1.9h27.11a10.92,10.92,0,0,1-10.09,6.75H361.56v8l14.66,25.79,2.5,1.9h10.06L373.86,360.5h8.57a17.94,17.94,0,0,0,17.62-15.65h2.07l4.78-7Z"/><path class="cls-3" d="M394,329.73h5.65l4.77-7H365.9l-4.78,7h18.66a10.91,10.91,0,0,1,9.84,6.21H365l-4.77,7h30.2a10.94,10.94,0,0,1-10.69,8.65H361.56v8l14.66,25.79h10.06l-14.9-26.81h8.57A17.92,17.92,0,0,0,397.55,343h2.08l4.77-7h-7.33A18.1,18.1,0,0,0,394,329.73Z"/><rect class="cls-23" x="212.33" y="354.85" width="91.67" height="54.33"/><path class="cls-24" d="M280.58,264.22a17.13,17.13,0,0,0-9-.87l5.5-14,6.38,3.25Z"/><circle class="cls-25" cx="277.02" cy="251.66" r="5.06"/><path class="cls-24" d="M259.21,246.47s-1.63,8.38-3.25,10.25-3.88,3.63-2.63,5.63,4.13,2.48,6.5,2.12,5.13-1,6.75-.25.5-9.75.5-9.75l-3.25-10.87S258.71,246.35,259.21,246.47Z"/><path class="cls-25" d="M217.17,313.35a82.74,82.74,0,0,1-11.67,4.17,12.14,12.14,0,0,0,14.5-.67Z"/><path class="cls-26" d="M254.67,271.52s-8.34,28-37.5,41.83l2.5,5.17s20-3,41.16-30.17Z"/><path class="cls-25" d="M208.21,391.22s-5.63,8.38-11.38,10.63c0,0,6.25.5,9.75-2.75S208.21,391.22,208.21,391.22Z"/><path class="cls-27" d="M225,353s17.92,39.62,18.86,47.16-6,18.55-6,18.55H241l10.38-12.89-11.64-48.73,10.38-1.26-5.35-13.52L225.28,342Z"/><path class="cls-25" d="M226.08,326.63s-8.48-1.88-10.37,5.66-10.86,67-10.86,67l8.17-2.2,13.83-52.51,23,.95S238.35,330.72,226.08,326.63Z"/><path class="cls-28" d="M213,397.06s1.26,3.77-.94,6.6-5.83,7.19-5.83,7.19l-.94-1.57,2.05-5.93-12.79,1.57-7.24-4.09a45.23,45.23,0,0,0,17.52-1.57Z"/><path class="cls-28" d="M241,418.75l10.38-12.89c2.51,3,1.88,5.77,1.88,5.77l-.42,10.69H251l-.84-9.23L242,421.27h-8.6l4.51-2.52Z"/><path class="cls-23" d="M276.36,268.37l9.06,4a4.9,4.9,0,0,1,2.77,5.78c-1.77,6.49-4.12,23.46-1.74,39.79H257.27s-4.19-25.82-3.8-44.29a4.9,4.9,0,0,1,4-4.71l8.07-1.45Z"/><path class="cls-27" d="M280.75,274.35c-.26,3.49-5.29,6-11.23,5.53s-10.54-3.63-10.29-7.13,5.29-6,11.23-5.53S281,270.85,280.75,274.35Z"/><path class="cls-27" d="M275.24,256.56s.16,7.67,1.38,12.27a29.67,29.67,0,0,1-12.11,0s2.6-2.6,3.06-10.73Z"/><path class="cls-23" d="M256,277.77l-6.29,12.12s2,6.6,10.58,5.83l8.9-5.83Z"/><path class="cls-28" d="M286.45,317.9s4.43,12,4.68,19.66c.24,7.38-1.9,16.65-18.63,17.92-15.74,1.19-18.24,1.59-30.29,1.59,0,0-3.33-24.11-11.57-30.77,0,0,12.44-4,26.63-8.4Z"/><path class="cls-29" d="M288,275.12a10.4,10.4,0,0,0-1.2-.72c-4.08-2-8.34,4.48-8.34,4.48s-6.51,13.4-23.1,25.32c.54,4.51,1.06,8.29,1.42,10.73,8.18-3.48,17.48-8.84,25.05-17,1.55-1.68,2.87-3.24,4-4.69a89.89,89.89,0,0,1,2.34-15.14A4.91,4.91,0,0,0,288,275.12Z"/><path class="cls-22" d="M279.17,277.35s-12.67,23.83-45.42,34.92l2.33,5.5s27.34-2.84,45.75-21.25c16.5-16.5,7.94-22.2,5.84-23.34C283.67,271,279.17,277.35,279.17,277.35Z"/><path class="cls-25" d="M233.75,312.27l-12.25,4.58,2.33,5.67s6.17,1,12.25-4.75Z"/><path class="cls-30" d="M275.71,263.53c-.09-.85-.17-1.69-.23-2.46l-7.83-3-.08,0c-.31,5.55-1.63,8.53-2.43,9.86A16.27,16.27,0,0,0,275.71,263.53Z"/><path class="cls-25" d="M260.52,243.21h16.26a0,0,0,0,1,0,0v14A7.74,7.74,0,0,1,269,265h-.79a7.74,7.74,0,0,1-7.74-7.74v-14A0,0,0,0,1,260.52,243.21Z"/><path class="cls-20" d="M272.71,243.6s.12,5.12,3.5,8.25c0,0,1.37-3.63,3.12-1.25s.13,4.87-2.75,5.25c0,0-.87,6.62,1.88,9.5s2.75-2.38,6.37-1.88,6-.5,4-3.75-5.37-11.5-5.75-15.5-1.62-10.37-6.12-8.87a5.35,5.35,0,0,0-5.13-4.38c-4.5-.25-7.62,4-11.12,3.38s-7,.75-7.5,5c-.62,5.23,1.25,9,7.75,8.12C261,247.47,270.58,246,272.71,243.6Z"/><rect class="cls-31" x="169.74" y="323.77" width="141.76" height="5.39"/><rect class="cls-32" x="168.12" y="325.91" width="145.01" height="1.11"/><circle class="cls-3" cx="155.35" cy="246.96" r="74.25"/><circle class="cls-21" cx="155.35" cy="246.96" r="56.98" transform="translate(-119.49 344.88) rotate(-77.44)"/><circle class="cls-22" cx="155.35" cy="246.96" r="54.82" transform="translate(-120.18 342.91) rotate(-77.03)"/><path class="cls-21" d="M182.1,225h-6.64a21.4,21.4,0,0,0-3-5.22h6.85l5.79-8.49-3-2.31H135.43l-5.79,8.5,3,2.3h22.61a13.16,13.16,0,0,1,6.4,1.65,13.41,13.41,0,0,1,2.52,3.57h-29.8l-5.79,8.5,3,2.3h32.87A13.25,13.25,0,0,1,152.25,244H130.17v9.72L147.93,285l3,2.3h12.2l-18.06-32.49h10.38a21.72,21.72,0,0,0,21.35-19h2.51l5.79-8.49Z"/><path class="cls-3" d="M169.46,217.47h6.85l5.79-8.5H135.43l-5.79,8.5h22.61A13.25,13.25,0,0,1,164.19,225h-29.8l-5.79,8.5h36.61a13.25,13.25,0,0,1-13,10.48H130.17v9.72L147.93,285h12.2l-18.07-32.49h10.39a21.72,21.72,0,0,0,21.35-19h2.51l5.79-8.5h-8.89A21.6,21.6,0,0,0,169.46,217.47Z"/><rect class="cls-33" x="172.92" y="329.16" width="136.37" height="2.54"/><polygon class="cls-25" points="164.35 425.8 159.84 425.8 176.48 331.69 183.38 331.69 164.35 425.8"/><polygon class="cls-25" points="315 425.8 319.52 425.8 302.87 331.69 295.98 331.69 315 425.8"/><polygon class="cls-34" points="227.27 321.28 181.02 321.28 172.92 291.17 219.17 291.17 227.27 321.28"/><polygon class="cls-35" points="227.38 321.28 226 321.28 217.9 291.17 219.27 292.6 227.38 321.28"/><rect class="cls-35" x="181.02" y="321.28" width="65.75" height="2.49"/><path class="cls-35" d="M200.93,306.59c.49,2.62-1,5.09-3.21,5.51s-4.5-1.37-5-4,.95-5.09,3.21-5.51S200.44,304,200.93,306.59Z"/><polygon class="cls-6" points="76.74 416.55 50.18 416.55 46.87 383.5 80.06 383.5 76.74 416.55"/><path class="cls-6" d="M80.06,383.5c0-1.83-7.43-3.32-16.6-3.32s-16.59,1.49-16.59,3.32,7.43,3.31,16.59,3.31S80.06,385.33,80.06,383.5Z"/><path class="cls-20" d="M78,383.5c0-1.61-6.53-2.92-14.58-2.92s-14.58,1.31-14.58,2.92,6.53,2.91,14.58,2.91S78,385.11,78,383.5Z"/><path class="cls-6" d="M76.74,416.44c0-1.83-5.95-3.31-13.28-3.31s-13.28,1.48-13.28,3.31,6,3.32,13.28,3.32S76.74,418.27,76.74,416.44Z"/><path class="cls-36" d="M79.38,372.06a6.39,6.39,0,0,0-1.16-3.7c-.57-1-1-1.88-.36-2.85a6.28,6.28,0,0,1,1.8-1.41,28.39,28.39,0,0,1,2.84-1.48A27.58,27.58,0,0,0,88.65,359a10.24,10.24,0,0,0,2-2.26,7.05,7.05,0,0,0,.94-2.15,26.62,26.62,0,0,0,.46-4,2.66,2.66,0,0,1,1.15-1.76,16.56,16.56,0,0,1,2.53-1.53c1-.47,2-.89,3-1.36a16.21,16.21,0,0,0,2.64-1.43,4.08,4.08,0,0,0,1-1.06,5.85,5.85,0,0,0,.65-1.27,10.84,10.84,0,0,0,.55-2.81,4.15,4.15,0,0,0-2.17-4.09,9.12,9.12,0,0,0-2.81-.95,6.5,6.5,0,0,0-1.59,0,5.12,5.12,0,0,0-1.56.52,13.22,13.22,0,0,0-2.8,2c-.91.86-1.83,1.77-2.68,2.65a20.32,20.32,0,0,1-2.4,2.31,3.72,3.72,0,0,1-2.12,1,14.76,14.76,0,0,0-4.48.35,9.44,9.44,0,0,0-2.58,1.18,12.8,12.8,0,0,0-2.7,2.58,20.62,20.62,0,0,0-3.52,7.79c-.36,1.27-.59,2.5-.84,3.52a8.58,8.58,0,0,1-.86,2.41c-.66,1.13-1.66,1.13-2.88,1.14a5.68,5.68,0,0,0-4.1,1.24,3.27,3.27,0,0,0-1,2.24,17.63,17.63,0,0,0,.21,3.68c.17,1.41.51,3,.82,4.77s.68,3.61.92,5.56a1.56,1.56,0,0,0,2.66,1A23.83,23.83,0,0,1,71.43,377a38.12,38.12,0,0,1,3.93-2,21.53,21.53,0,0,0,2.83-1.43A2.12,2.12,0,0,0,79.38,372.06Z"/><path class="cls-7" d="M64.3,384.18a.38.38,0,0,1-.23-.5l.74-2.34c.22-.76.56-1.65,1-2.66s.79-2.18,1.36-3.4a77.92,77.92,0,0,1,9.93-16.93,77,77,0,0,1,13.79-14c2.08-1.69,4-2.91,5.24-3.82l2.09-1.3a.38.38,0,0,1,.54.1.4.4,0,0,1-.16.53l-2.07,1.29c-1.26.9-3.12,2.11-5.19,3.78a81,81,0,0,0-6.8,6,79.63,79.63,0,0,0-6.85,7.83,77.77,77.77,0,0,0-9.85,16.77c-.55,1.2-1,2.35-1.34,3.36s-.72,1.89-.93,2.64l-.74,2.32A.4.4,0,0,1,64.3,384.18Z"/><path class="cls-16" d="M68.19,366a5.33,5.33,0,0,0-3.6-1.87c-1.16-.23-2.12-.41-2.45-1.53a6.94,6.94,0,0,1-.2-2.3c0-1,.12-2.1.1-3.31a17.14,17.14,0,0,0-1.4-7.65,10.35,10.35,0,0,0-1.94-2.77,7.82,7.82,0,0,0-2.14-1.47,13.43,13.43,0,0,0-4.11-.93,3,3,0,0,1-1.74-1.2A16,16,0,0,1,49,340.52c-.58-.93-1.23-1.9-1.89-2.81a9.43,9.43,0,0,0-1-1.26,10.25,10.25,0,0,0-1.11-1,4.09,4.09,0,0,0-1.32-.66,5.21,5.21,0,0,0-1.47-.14,8.38,8.38,0,0,0-2.76.61,4.63,4.63,0,0,0-2.79,3.69,10.66,10.66,0,0,0-.1,2.71,5,5,0,0,0,.3,1.26,3.19,3.19,0,0,0,.64,1.08,6.07,6.07,0,0,0,.92.8l1.11.77c.77.53,1.64,1,2.41,1.56a12.84,12.84,0,0,1,1.94,1.66,2.13,2.13,0,0,1,.62,1.74,25.09,25.09,0,0,0-.6,3.7,5.66,5.66,0,0,0,.31,2,7.23,7.23,0,0,0,1.21,2.22,21.48,21.48,0,0,0,4.76,4,24.15,24.15,0,0,1,2.28,1.7,5,5,0,0,1,1.33,1.51c.37.94-.29,1.62-1.11,2.4a6.21,6.21,0,0,0-2.11,3c-.12.51.14,1,.69,1.5a20.37,20.37,0,0,0,2.28,1.73,32.92,32.92,0,0,1,3.21,2.42,21.09,21.09,0,0,1,3.34,3.54,1.64,1.64,0,0,0,2.81-.22c.75-1.64,1.64-3.19,2.37-4.64s1.53-2.8,2.07-4a15.06,15.06,0,0,0,1.21-3.21A2.63,2.63,0,0,0,68.19,366Z"/><path class="cls-7" d="M61.68,384.3a.38.38,0,0,1-.39-.35l-.07-2.14c0-.69-.09-1.51-.18-2.45s-.18-2-.39-3.17a59.56,59.56,0,0,0-4.92-16.34,61.86,61.86,0,0,0-4.44-8,61.71,61.71,0,0,0-4.84-6.34c-1.51-1.79-2.94-3.11-3.89-4.09L41,340a.37.37,0,0,1,0-.52.35.35,0,0,1,.51,0l1.62,1.44c1,1,2.41,2.34,3.94,4.14a64.78,64.78,0,0,1,4.9,6.42,64.64,64.64,0,0,1,4.49,8.1,60.42,60.42,0,0,1,5,16.54c.21,1.17.3,2.25.39,3.21s.18,1.79.18,2.48c0,1.38.08,2.17.08,2.17A.34.34,0,0,1,61.68,384.3Z"/><path class="cls-37" d="M71.16,363.57a6.7,6.7,0,0,0-2.69-3.22c-1-.73-1.77-1.37-1.61-2.73a8.33,8.33,0,0,1,1-2.46,36.45,36.45,0,0,1,1.9-3.12,37.24,37.24,0,0,0,4-7.3,14.67,14.67,0,0,0,.8-3.44,9,9,0,0,0-.08-2.72,26.75,26.75,0,0,0-1.35-4.26,3.59,3.59,0,0,1,.29-2.42,23.6,23.6,0,0,1,1.68-3c.7-1.05,1.52-2.1,2.22-3.15.35-.53.7-1,1-1.53a12.59,12.59,0,0,0,.81-1.46,5.17,5.17,0,0,0,.45-1.61,6.6,6.6,0,0,0,0-1.6,11.34,11.34,0,0,0-.74-3A3.7,3.7,0,0,0,75,314.08a9.82,9.82,0,0,0-3.06.81,7.45,7.45,0,0,0-1.51.92,6.36,6.36,0,0,0-1.21,1.4,16.05,16.05,0,0,0-.9,1.66,15.07,15.07,0,0,0-.77,1.92c-.45,1.35-.89,2.75-1.28,4.09a28.38,28.38,0,0,1-1.18,3.61,4.74,4.74,0,0,1-1.5,2.19,17.23,17.23,0,0,0-3.94,2.91,11.9,11.9,0,0,0-1.8,2.61,15.82,15.82,0,0,0-1.3,4,25.75,25.75,0,0,0,.31,9.62c.25,1.46.59,2.8.83,4a10.94,10.94,0,0,1,.31,2.88c-.07,1.5-1,2-2.06,2.7a6.23,6.23,0,0,0-3.09,3.4,4.09,4.09,0,0,0,.16,2.75,20.82,20.82,0,0,0,1.86,3.61c.79,1.34,1.84,2.82,2.92,4.43s2.26,3.36,3.38,5.26a1.48,1.48,0,0,0,2.81-.33A29,29,0,0,1,66.35,373a45,45,0,0,1,2.59-4.13,24.57,24.57,0,0,0,1.86-3A2.8,2.8,0,0,0,71.16,363.57Z"/><path class="cls-7" d="M63.35,384.06c-.2,0-.39-.15-.43-.41l-.44-2.8c-.06-.45-.16-.94-.21-1.48s-.12-1.13-.19-1.76c-.13-1.25-.3-2.65-.36-4.2a96.89,96.89,0,0,1,1.22-22.61A101.8,101.8,0,0,1,65.69,339a100.6,100.6,0,0,1,3.61-9.93c1.17-2.87,2.38-5.15,3.16-6.78s1.36-2.49,1.36-2.49a.38.38,0,1,1,.65.36s-.49.9-1.36,2.47-2,3.88-3.13,6.72a95.12,95.12,0,0,0-6.32,21.57,95.9,95.9,0,0,0-1.2,22.44c.06,1.54.22,2.93.36,4.18.06.62.12,1.2.18,1.73s.15,1,.21,1.47c.28,1.77.43,2.78.43,2.78A.45.45,0,0,1,63.35,384.06Z"/><polygon class="cls-6" points="436.74 416.55 410.18 416.55 406.87 383.5 440.06 383.5 436.74 416.55"/><path class="cls-6" d="M440.06,383.5c0-1.83-7.43-3.32-16.6-3.32s-16.59,1.49-16.59,3.32,7.43,3.31,16.59,3.31S440.06,385.33,440.06,383.5Z"/><path class="cls-20" d="M438,383.5c0-1.61-6.53-2.92-14.58-2.92s-14.58,1.31-14.58,2.92,6.53,2.91,14.58,2.91S438,385.11,438,383.5Z"/><path class="cls-6" d="M436.74,416.44c0-1.83-5.95-3.31-13.28-3.31s-13.28,1.48-13.28,3.31,5.95,3.32,13.28,3.32S436.74,418.27,436.74,416.44Z"/><path class="cls-36" d="M439.38,372.06a6.39,6.39,0,0,0-1.16-3.7c-.57-1-1-1.88-.36-2.85a6.28,6.28,0,0,1,1.8-1.41,28.39,28.39,0,0,1,2.84-1.48,27.58,27.58,0,0,0,6.15-3.67,10.24,10.24,0,0,0,2-2.26,7.05,7.05,0,0,0,.94-2.15,26.62,26.62,0,0,0,.46-4,2.66,2.66,0,0,1,1.15-1.76,16.56,16.56,0,0,1,2.53-1.53c1-.47,2-.89,3-1.36a16.21,16.21,0,0,0,2.64-1.43,4.08,4.08,0,0,0,1-1.06,5.85,5.85,0,0,0,.65-1.27,10.84,10.84,0,0,0,.55-2.81,4.15,4.15,0,0,0-2.17-4.09,9.12,9.12,0,0,0-2.81-.95,6.5,6.5,0,0,0-1.59,0,5.12,5.12,0,0,0-1.56.52,13.22,13.22,0,0,0-2.8,2c-.91.86-1.83,1.77-2.68,2.65a20.32,20.32,0,0,1-2.4,2.31,3.72,3.72,0,0,1-2.12,1,14.76,14.76,0,0,0-4.48.35,9.44,9.44,0,0,0-2.58,1.18,12.8,12.8,0,0,0-2.7,2.58,20.62,20.62,0,0,0-3.52,7.79c-.36,1.27-.59,2.5-.84,3.52a8.91,8.91,0,0,1-.86,2.41c-.66,1.13-1.66,1.13-2.88,1.14a5.68,5.68,0,0,0-4.1,1.24,3.27,3.27,0,0,0-1,2.24,17.63,17.63,0,0,0,.21,3.68c.17,1.41.51,3,.82,4.77s.68,3.61.92,5.56a1.56,1.56,0,0,0,2.66,1,24.12,24.12,0,0,1,4.35-3.15,39.23,39.23,0,0,1,3.94-2,21.53,21.53,0,0,0,2.83-1.43A2.12,2.12,0,0,0,439.38,372.06Z"/><path class="cls-7" d="M424.3,384.18a.38.38,0,0,1-.23-.5l.74-2.34c.22-.76.56-1.65.95-2.66s.79-2.18,1.36-3.4a77.92,77.92,0,0,1,9.93-16.93,82.49,82.49,0,0,1,6.92-7.9,84,84,0,0,1,6.86-6.07c2.09-1.69,4-2.91,5.25-3.82l2.09-1.3a.38.38,0,0,1,.54.1.4.4,0,0,1-.16.53l-2.07,1.29c-1.26.9-3.12,2.11-5.19,3.78a81,81,0,0,0-6.8,6,79.63,79.63,0,0,0-6.85,7.83,77.77,77.77,0,0,0-9.85,16.77c-.55,1.2-1,2.35-1.34,3.36s-.72,1.89-.93,2.64l-.74,2.32A.4.4,0,0,1,424.3,384.18Z"/><path class="cls-16" d="M428.19,366a5.33,5.33,0,0,0-3.6-1.87c-1.16-.23-2.12-.41-2.45-1.53a6.94,6.94,0,0,1-.2-2.3c0-1,.12-2.1.1-3.31a17.14,17.14,0,0,0-1.4-7.65,10.35,10.35,0,0,0-1.94-2.77,7.82,7.82,0,0,0-2.14-1.47,13.43,13.43,0,0,0-4.11-.93,3,3,0,0,1-1.74-1.2,16,16,0,0,1-1.71-2.45c-.58-.93-1.24-1.9-1.89-2.81a9.43,9.43,0,0,0-1-1.26,10.25,10.25,0,0,0-1.11-1,4.09,4.09,0,0,0-1.32-.66,5.21,5.21,0,0,0-1.47-.14,8.38,8.38,0,0,0-2.76.61,4.63,4.63,0,0,0-2.79,3.69,11.14,11.14,0,0,0-.1,2.71,5,5,0,0,0,.3,1.26,3.19,3.19,0,0,0,.64,1.08,6.07,6.07,0,0,0,.92.8l1.11.77c.77.53,1.64,1,2.41,1.56a12.84,12.84,0,0,1,1.94,1.66,2.13,2.13,0,0,1,.62,1.74,25.09,25.09,0,0,0-.6,3.7,5.66,5.66,0,0,0,.31,2,7.23,7.23,0,0,0,1.21,2.22,21.48,21.48,0,0,0,4.76,4,24.15,24.15,0,0,1,2.28,1.7,5,5,0,0,1,1.33,1.51c.37.94-.29,1.62-1.11,2.4a6.21,6.21,0,0,0-2.11,3c-.12.51.14,1,.69,1.5a20.37,20.37,0,0,0,2.28,1.73,32.92,32.92,0,0,1,3.21,2.42,21.09,21.09,0,0,1,3.34,3.54,1.64,1.64,0,0,0,2.81-.22c.75-1.64,1.64-3.19,2.37-4.64s1.53-2.8,2.07-4a15.06,15.06,0,0,0,1.21-3.21A2.63,2.63,0,0,0,428.19,366Z"/><path class="cls-7" d="M421.68,384.3a.38.38,0,0,1-.39-.35l-.07-2.14c0-.69-.09-1.51-.18-2.45s-.18-2-.39-3.17a59.56,59.56,0,0,0-4.92-16.34,59,59,0,0,0-9.28-14.34c-1.51-1.79-2.94-3.11-3.89-4.09L401,340a.37.37,0,0,1,0-.52.35.35,0,0,1,.51,0l1.62,1.44c1,1,2.41,2.34,3.94,4.14a59.52,59.52,0,0,1,9.39,14.52,60.42,60.42,0,0,1,5,16.54c.21,1.17.3,2.25.39,3.21s.18,1.79.18,2.48c.05,1.38.08,2.17.08,2.17A.34.34,0,0,1,421.68,384.3Z"/><path class="cls-37" d="M431.16,363.57a6.7,6.7,0,0,0-2.69-3.22c-1-.73-1.77-1.37-1.61-2.73a8.33,8.33,0,0,1,1-2.46,36.45,36.45,0,0,1,1.9-3.12,37.24,37.24,0,0,0,4-7.3,14.67,14.67,0,0,0,.8-3.44,9,9,0,0,0-.08-2.72,26.75,26.75,0,0,0-1.35-4.26,3.59,3.59,0,0,1,.29-2.42,23.6,23.6,0,0,1,1.68-3c.7-1.05,1.52-2.1,2.22-3.15.35-.53.7-1,1-1.53a12.59,12.59,0,0,0,.81-1.46,5.17,5.17,0,0,0,.45-1.61,6.6,6.6,0,0,0,.05-1.6,11.34,11.34,0,0,0-.74-3,3.7,3.7,0,0,0-3.91-2.49,9.82,9.82,0,0,0-3.06.81,7.45,7.45,0,0,0-1.51.92,6.36,6.36,0,0,0-1.21,1.4,16.05,16.05,0,0,0-.9,1.66,15.07,15.07,0,0,0-.77,1.92c-.45,1.35-.89,2.75-1.28,4.09a28.38,28.38,0,0,1-1.18,3.61,4.74,4.74,0,0,1-1.5,2.19,17.23,17.23,0,0,0-3.94,2.91,11.9,11.9,0,0,0-1.8,2.61,15.82,15.82,0,0,0-1.3,4,25.75,25.75,0,0,0,.31,9.62c.25,1.46.59,2.8.83,4a10.94,10.94,0,0,1,.31,2.88c-.07,1.5-1,2-2.06,2.7a6.23,6.23,0,0,0-3.09,3.4,4.09,4.09,0,0,0,.16,2.75,20.14,20.14,0,0,0,1.86,3.61c.79,1.34,1.84,2.82,2.92,4.43s2.26,3.36,3.38,5.26a1.48,1.48,0,0,0,2.81-.33,29,29,0,0,1,2.41-5.51,45,45,0,0,1,2.59-4.13,24.57,24.57,0,0,0,1.86-3A2.8,2.8,0,0,0,431.16,363.57Z"/><path class="cls-7" d="M423.35,384.06c-.2,0-.39-.15-.43-.41l-.44-2.8c-.06-.45-.16-.94-.21-1.48s-.12-1.13-.19-1.76c-.13-1.25-.3-2.65-.36-4.2a96.89,96.89,0,0,1,1.22-22.61,101.8,101.8,0,0,1,2.75-11.8,100.6,100.6,0,0,1,3.61-9.93c1.17-2.87,2.38-5.15,3.16-6.78s1.36-2.49,1.36-2.49a.38.38,0,1,1,.65.36s-.49.9-1.36,2.47-2,3.88-3.13,6.72a95.12,95.12,0,0,0-6.32,21.57,95.9,95.9,0,0,0-1.2,22.44c.06,1.54.22,2.93.36,4.18.06.62.12,1.2.18,1.73s.15,1,.21,1.47c.28,1.77.43,2.78.43,2.78A.45.45,0,0,1,423.35,384.06Z"/></g></g></svg>